HIERARCHY
ROOT Hips
{
	OFFSET	0.00	0.00	0.00
	CHANNELS 6 Xposition Yposition Zposition Zrotation Xrotation Yrotation
	JOINT LeftUpLeg
	{
		OFFSET	 0.126116	-0.065224	 0.014019
		CHANNELS 3 Zrotation Xrotation Yrotation
		JOINT LeftLeg
		{
			OFFSET	 0.000000	 0.569914	 0.000000
			CHANNELS 3 Zrotation Xrotation Yrotation
			JOINT LeftFoot
			{
				OFFSET	 0.000000	 0.544423	 0.000000
				CHANNELS 3 Zrotation Xrotation Yrotation
				JOINT LeftToeBase
				{
					OFFSET	 0.000000	 0.207117	 0.000000
					CHANNELS 3 Zrotation Xrotation Yrotation
					End Site
					{
						OFFSET	 0.000000	 0.207117	 0.000000
					}
				}
			}
		}
	}
	JOINT RightUpLeg
	{
		OFFSET	-0.124023	-0.065224	 0.008373
		CHANNELS 3 Zrotation Xrotation Yrotation
		JOINT RightLeg
		{
			OFFSET	 0.000000	 0.570047	 0.000000
			CHANNELS 3 Zrotation Xrotation Yrotation
			JOINT RightFoot
			{
				OFFSET	 0.000000	 0.544354	 0.000000
				CHANNELS 3 Zrotation Xrotation Yrotation
				JOINT RightToeBase
				{
					OFFSET	 0.000000	 0.207540	 0.000000
					CHANNELS 3 Zrotation Xrotation Yrotation
					End Site
					{
						OFFSET	 0.000000	 0.207540	 0.000000
					}
				}
			}
		}
	}
	JOINT Spine
	{
		OFFSET	 0.000184	 0.117403	 0.007763
		CHANNELS 3 Zrotation Xrotation Yrotation
		JOINT Spine1
		{
			OFFSET	 0.000000	 0.137269	 0.000000
			CHANNELS 3 Zrotation Xrotation Yrotation
			JOINT Spine2
			{
				OFFSET	 0.000000	 0.156879	 0.000000
				CHANNELS 3 Zrotation Xrotation Yrotation
				JOINT LeftShoulder
				{
					OFFSET	 0.080501	 0.160143	 0.002496
					CHANNELS 3 Zrotation Xrotation Yrotation
					JOINT LeftArm
					{
						OFFSET	 0.000000	 0.164363	 0.000000
						CHANNELS 3 Zrotation Xrotation Yrotation
						JOINT LeftForeArm
						{
							OFFSET	 0.000000	 0.364576	 0.000000
							CHANNELS 3 Zrotation Xrotation Yrotation
							JOINT LeftHand
							{
								OFFSET	 0.000000	 0.360812	 0.000000
								CHANNELS 3 Zrotation Xrotation Yrotation
								JOINT LeftHandIndex1
								{
									OFFSET	 0.000000	 0.086006	 0.000000
									CHANNELS 3 Zrotation Xrotation Yrotation
									JOINT LeftHandIndex2
									{
										OFFSET	 0.000000	 0.047237	 0.000000
										CHANNELS 3 Zrotation Xrotation Yrotation
										JOINT LeftHandIndex3
										{
											OFFSET	-0.004284	 0.038165	 0.000551
											CHANNELS 3 Zrotation Xrotation Yrotation
											End Site
											{
												OFFSET	-0.004284	 0.038165	 0.000551
											}
										}
									}
								}
							}
						}
					}
				}
				JOINT Neck
				{
					OFFSET	 0.000000	 0.176489	 0.000000
					CHANNELS 3 Zrotation Xrotation Yrotation
					JOINT Head
					{
						OFFSET	 0.000000	 0.077941	 0.001747
						CHANNELS 3 Zrotation Xrotation Yrotation
						End Site
						{
							OFFSET	 0.000000	 0.077941	 0.001747
						}
					}
				}
				JOINT RightShoulder
				{
					OFFSET	-0.080363	 0.159706	-0.000306
					CHANNELS 3 Zrotation Xrotation Yrotation
					JOINT RightArm
					{
						OFFSET	 0.000000	 0.164196	 0.000000
						CHANNELS 3 Zrotation Xrotation Yrotation
						JOINT RightForeArm
						{
							OFFSET	 0.000000	 0.365611	 0.000000
							CHANNELS 3 Zrotation Xrotation Yrotation
							JOINT RightHand
							{
								OFFSET	 0.000000	 0.360648	 0.000000
								CHANNELS 3 Zrotation Xrotation Yrotation
								JOINT RightHandIndex1
								{
									OFFSET	 0.000000	 0.069977	 0.000000
									CHANNELS 3 Zrotation Xrotation Yrotation
									JOINT RightHandIndex2
									{
										OFFSET	 0.000000	 0.052305	 0.000000
										CHANNELS 3 Zrotation Xrotation Yrotation
										JOINT RightHandIndex3
										{
											OFFSET	 0.009002	 0.042196	 0.000782
											CHANNELS 3 Zrotation Xrotation Yrotation
											End Site
											{
												OFFSET	 0.009002	 0.042196	 0.000782
											}
										}
									}
								}
							}
						}
					}
				}
			}
		}
	}
}
MOTION
Frames:    10
Frame Time: 0.03333334
-0.106420	 1.270662	-0.065233	 10.818020	-2.372684	-170.939400	-161.649900	 21.476080	-6.635503	 7.117587	-24.957860	 8.435401	-2.762228	 58.765100	-6.806120	 1.880787	 35.609100	-2.935429	 172.198900	 9.738537	 45.335530	-2.922924	-33.942430	 9.440112	 7.246265	 62.445810	-7.884324	-3.588523	 50.865100	 4.116810	-4.284785	 3.523751	 11.505980	-3.949614	 5.939089	 3.078935	 1.607908	-6.455952	-0.377661	-100.187800	 3.534781	 93.431370	 64.086940	 38.168760	-16.370300	 4.900578	-0.253263	-0.072941	 49.749180	 2.065495	-6.033086	 3.650558	 54.555210	-2.062288	-8.669871	 61.006950	 8.938632	 6.613589	 34.414020	 0.048682	 4.083763	-10.374200	-2.746230	 7.389773	-6.864554	-5.025609	 79.618320	 15.644760	-65.287060	 1.910256	 14.453060	-4.700184	-42.022090	-1.508690	-0.520936	-10.603990	-14.359980	-11.805200	-4.684526	-12.249900	-0.477693	 11.955020	 5.865656	-1.358163	-8.191339	-3.950127	 0.568530
-0.096210	 1.270050	-0.067483	 12.090240	-3.031871	-165.812600	-161.766400	 23.536940	-2.371549	 6.731799	-23.764160	 8.757731	-0.928163	 58.612890	-7.945955	 1.757197	 34.202850	-2.948630	 172.422100	 11.899040	 44.843430	-3.242933	-36.747390	 7.278522	 6.697659	 61.437520	-4.902352	-4.018618	 53.650360	 4.446137	-4.537801	 4.163304	 13.251510	-4.444640	 7.043844	 4.257820	 1.733451	-7.294328	-1.808494	-100.788900	 3.781963	 93.478520	 62.051880	 35.846920	-17.765190	 4.833534	-0.249809	-0.073322	 50.542310	 5.257029	-7.816433	 3.680464	 55.085840	-2.081473	-8.750975	 61.352530	 9.048477	 6.614298	 34.428960	 0.048605	 3.609837	-10.954780	-3.098006	 6.401501	-7.435038	-7.732224	 90.512450	 23.296350	-83.630840	-5.776463	 22.730590	-12.874390	-56.613090	-1.881618	-0.954907	 8.569396	-7.662270	-12.134100	-4.633123	-13.558300	-0.568965	 11.963940	 3.649730	-0.887199	-8.141046	-5.694493	 0.686407
-0.090439	 1.265906	-0.068679	 12.900010	-4.077642	-162.120100	-162.397300	 26.033090	 0.643540	 6.769069	-23.880410	 9.484211	 1.753567	 59.590110	-9.876164	 1.607760	 32.448840	-2.916087	 172.841000	 13.553690	 44.063080	-3.361306	-37.735710	 5.937773	 6.970426	 62.317700	-3.146089	-4.053800	 53.863310	 4.473680	-4.990688	 4.340611	 15.216450	-4.593033	 8.677222	 5.393525	 1.666418	-8.518075	-2.906469	-101.306400	 3.814011	 93.476600	 59.707250	 35.242130	-16.905920	 4.755667	-0.245798	-0.073667	 48.921380	 7.841433	-4.138897	 3.718248	 55.401920	-2.107368	-8.811108	 61.602610	 9.129385	 6.613869	 34.419750	 0.048656	 3.346680	-11.516580	-3.421915	 5.778637	-8.083204	-9.903529	 99.565300	 26.734880	-97.132980	-42.369920	 24.899060	-1.171725	-10.246140	-0.400938	 0.022621	-6.060371	 3.685370	-11.332240	-4.639593	-10.667200	-0.636772	 11.956850	 6.829990	-1.563618	-8.246984	-1.851427	 0.428966
-0.091588	 1.248139	-0.066287	 13.143340	-5.102408	-161.228600	-163.454100	 30.072890	 1.100430	 8.657124	-29.482950	 11.532380	 6.092738	 64.770450	-13.593130	 1.386442	 29.675080	-2.781098	 173.399600	 14.528560	 42.371560	-3.400093	-38.054150	 5.685605	 8.327801	 68.847170	-2.909010	-3.238526	 48.326580	 3.860139	-5.093735	 4.586840	 18.149580	-5.271704	 10.103400	 6.410254	 1.896808	-9.906614	-3.207621	-101.706300	 3.369290	 93.357610	 54.702970	 37.176240	-9.959991	 4.629612	-0.239321	-0.074159	 40.430440	 9.418129	 12.346880	 3.777269	 55.279410	-2.150205	-8.828101	 61.672410	 9.152178	 6.610826	 34.355070	 0.048997	 3.527510	-12.118360	-3.715926	 5.927955	-9.088253	-11.164730	 100.722000	 27.960600	-97.511180	-42.183770	 31.899220	-4.769123	-19.177640	-0.740481	-0.066519	 9.379726	 2.310126	-12.261510	-4.769830	 2.150713	-0.643056	 12.528190	 22.761200	-5.126335	-8.515788	 15.052410	-0.648843
-0.093633	 1.235715	-0.063893	 13.137040	-5.865733	-160.637900	-164.469700	 32.609080	 1.479203	 9.897134	-32.846660	 12.982060	 10.791660	 68.178440	-17.567720	 1.218313	 27.448390	-2.684036	 174.096700	 14.864800	 40.913540	-3.313240	-37.337570	 5.555382	 9.092702	 73.671680	-2.809946	-2.701008	 43.881360	 3.489867	-5.289401	 4.811870	 19.826230	-5.171092	 10.193560	 6.469202	 1.892566	-10.482110	-3.471462	-102.027900	 3.012884	 93.259900	 49.185280	 39.789730	-3.620099	 4.549436	-0.235144	-0.074511	 32.702010	 7.493068	 24.963480	 3.824404	 55.181030	-2.184339	-8.841816	 61.728440	 9.170546	 6.608386	 34.303150	 0.049268	 3.670686	-12.602110	-3.951034	 6.039979	-9.897178	-12.178720	 101.678100	 28.927810	-97.843290	-35.359130	 36.435150	-11.669070	-31.489090	-1.177360	-0.273413	 21.005310	 2.325300	-14.197080	-4.875551	 12.405280	-0.626856	 13.914440	 35.430370	-8.524754	-8.495840	 28.624360	-1.544333
-0.095826	 1.232690	-0.062475	 12.735730	-6.257161	-160.654300	-165.163200	 33.193480	 1.139628	 10.152780	-33.509030	 13.198830	 12.010160	 68.917790	-18.375780	 1.184568	 26.993560	-2.668650	 173.854500	 14.512900	 41.409750	-3.204523	-36.420780	 6.648268	 10.995150	 75.339390	-5.530793	-2.430618	 41.365460	 3.316536	-5.218858	 4.776295	 20.125830	-5.426328	 10.492510	 6.840259	 1.979723	-10.620440	-3.300580	-102.528100	 2.877068	 93.194920	 45.343740	 41.882160	-2.090437	 4.551686	-0.235285	-0.074485	 28.493690	 8.473087	 30.280940	 3.847344	 55.152790	-2.201259	-8.827154	 61.668580	 9.150916	 6.610287	 34.343650	 0.049065	 3.792816	-12.419310	-3.938045	 5.598748	-9.834599	-12.006360	 102.270200	 28.481920	-97.881360	-36.024550	 39.349060	-11.201130	-26.402500	-1.002311	-0.176570	 18.555630	-0.314035	-20.040450	-4.887830	 13.089600	-0.625397	 14.059420	 36.345650	-8.806158	-8.485169	 29.578480	-1.611661
-0.098625	 1.232370	-0.060729	 12.133540	-6.570989	-160.810700	-165.971800	 33.256600	 0.682094	 10.129280	-33.448640	 13.216390	 13.100350	 69.189610	-18.964630	 1.158286	 26.638640	-2.658176	 173.637400	 13.812780	 42.109440	-3.021422	-34.826530	 8.065008	 14.152440	 76.554460	-9.832025	-2.172527	 38.773110	 3.160468	-5.163526	 4.782578	 20.014980	-5.344782	 10.308040	 6.890029	 1.963940	-10.464920	-3.095176	-103.087700	 2.747130	 93.125600	 39.733300	 45.074770	 0.433704	 4.588646	-0.237202	-0.074325	 24.479800	 8.591640	 35.491580	 3.870414	 55.127570	-2.218321	-8.809011	 61.594090	 9.126589	 6.612706	 34.395170	 0.048804	 3.924118	-12.166850	-3.904748	 5.076424	-9.699660	-11.725670	 102.887900	 27.876420	-97.894070	-32.955680	 41.699060	-12.584660	-21.674560	-0.832528	-0.100809	 12.787920	-2.779278	-27.698490	-4.893567	 13.080630	-0.625813	 14.072310	 36.424810	-8.830801	-8.484738	 29.614410	-1.614212
-0.101480	 1.233287	-0.057870	 11.188570	-6.860670	-161.138000	-166.997700	 32.969490	-0.013421	 9.924659	-32.918430	 13.146710	 14.440980	 69.296430	-19.674310	 1.122331	 26.149720	-2.644098	 173.081100	 12.914820	 43.165850	-2.816227	-32.963240	 10.166390	 21.739960	 78.064140	-18.913870	-1.845295	 35.202690	 2.977419	-5.108190	 4.926806	 19.364950	-4.860860	 9.479573	 6.413674	 1.842809	-9.904792	-2.835506	-103.858800	 2.569277	 93.028030	 31.943780	 48.830680	 4.275752	 4.630001	-0.239301	-0.074169	 17.847880	 8.479223	 41.444690	 3.902148	 55.092820	-2.241777	-8.784198	 61.491440	 9.093255	 6.616041	 34.466130	 0.048440	 4.104545	-11.818950	-3.859899	 4.364409	-9.510088	-11.342740	 103.739200	 27.033250	-97.902280	-31.216700	 44.532810	-12.544780	-10.710660	-0.418984	 0.019289	 1.086018	-4.741739	-39.568510	-4.901468	 13.068270	-0.626388	 14.090160	 36.533850	-8.864824	-8.484142	 29.663890	-1.617727
-0.104586	 1.234274	-0.056460	 10.009160	-6.515263	-163.638900	-166.790000	 31.392040	-2.738043	 9.789937	-32.565770	 12.750230	 14.202700	 69.667720	-19.199270	 1.131680	 26.277230	-2.647730	 172.452800	 12.399890	 40.870990	-2.756351	-32.404110	 10.554050	 22.111900	 77.426730	-19.434990	-1.831901	 35.049570	 2.970311	-4.538736	 4.867709	 18.598770	-4.983460	 9.179324	 6.591638	 1.978699	-9.370461	-2.286267	-104.071800	 2.498353	 92.931790	 26.483310	 52.056830	 4.991669	 4.663014	-0.241066	-0.074035	 17.048080	 10.070520	 38.855400	 3.892081	 55.152150	-2.235538	-8.760353	 61.391960	 9.061137	 6.620554	 34.561990	 0.047932	 4.118927	-11.143000	-3.604854	 3.605771	-9.163120	-10.115210	 104.862500	 26.159990	-97.950610	-26.345130	 46.267890	-11.628250	-5.051219	-0.198403	 0.049796	-8.101556	-5.904047	-44.954660	-4.855694	 12.839080	-0.608807	 14.069380	 36.406780	-8.825191	-8.485666	 29.537250	-1.608729
-0.104359	 1.236015	-0.053995	 8.549338	-5.850253	-166.685800	-166.421000	 29.156880	-5.898295	 9.464038	-31.700360	 12.178180	 13.375500	 69.758850	-18.307970	 1.144720	 26.454650	-2.652828	 171.503400	 12.029890	 38.117140	-2.754710	-32.388830	 10.855580	 22.476840	 76.696270	-19.993040	-1.833364	 35.066320	 2.971089	-3.918994	 4.936522	 16.949180	-4.364304	 8.305662	 5.950850	 1.873665	-8.443122	-1.669319	-104.280400	 2.424874	 92.823510	 22.082090	 55.227410	 4.347609	 4.723554	-0.244166	-0.073783	 14.988710	 12.096450	 33.598330	 3.878413	 55.224060	-2.226842	-8.733820	 61.280280	 9.025318	 6.625700	 34.671120	 0.047342	 4.122102	-10.364990	-3.307296	 2.767637	-8.781896	-8.690815	 106.175400	 25.103370	-98.004070	-17.190150	 46.317840	-13.183120	-4.961511	-0.194941	 0.050147	-15.469290	-4.535741	-52.099460	-4.801233	 12.569470	-0.587819	 14.044080	 36.250870	-8.776733	-8.487460	 29.385140	-1.597942
